# xmcd CD database file
#
# Track frame offsets:
#	150
#	14957
#	35894
#	45724
#	61767
#	76444
#	96140
#	112531
#	129907
#	148507
#	165923
#	180365
#	198403
#	215851
#	232027
#	251583
#
# Disc length: 3592 seconds
#
# Revision: 3
# Processed by: cddbd v1.5.2PL0 Copyright (c) Steve Scherf et al.
# Submitted via: CDex 1.70beta2
#
DISCID=d90e0610
DTITLE=Karma Karma - The Spirit Of Reiki and Chakra
DYEAR=2000
DGENRE=New Age
TTITLE0=Attunement
TTITLE1=Byosen Reikan Ho
TTITLE2=Quality Of Life
TTITLE3=Karma
TTITLE4=Touch
TTITLE5=Life Energy
TTITLE6=The Spirit Of Reiky
TTITLE7=Body And Mind
TTITLE8=Spiritual Connsciousness
TTITLE9=Positive Change
TTITLE10=Satori
TTITLE11=Sacred Sites
TTITLE12=Hatsurei Ho
TTITLE13=Ryoho
TTITLE14=The Secret Of Inviting Blessings
TTITLE15=The Gift Of Life
EXTD=YEAR: 2000
EXTT0=
EXTT1=
EXTT2=
EXTT3=
EXTT4=
EXTT5=
EXTT6=
EXTT7=
EXTT8=
EXTT9=
EXTT10=
EXTT11=
EXTT12=
EXTT13=
EXTT14=
EXTT15=
PLAYORDER=
